<svg width="24" height="24" viewBox="0 0 24 24" fill="none" xmlns="http://www.w3.org/2000/svg">
<path d="M11.9997 1.99951C6.49969 1.99951 1.99969 6.49951 1.99969 11.9995C1.99969 17.4995 6.49969 21.9995 11.9997 21.9995C17.4997 21.9995 21.9997 17.4995 21.9997 11.9995C21.9997 6.49951 17.4997 1.99951 11.9997 1.99951ZM11.9997 19.9995C7.58969 19.9995 3.99969 16.4095 3.99969 11.9995C3.99969 7.58951 7.58969 3.99951 11.9997 3.99951C16.4097 3.99951 19.9997 7.58951 19.9997 11.9995C19.9997 16.4095 16.4097 19.9995 11.9997 19.9995Z" fill="#CC2944"/>
<path fill-rule="evenodd" clip-rule="evenodd" d="M15.5774 16.7559C15.9028 17.0814 16.4305 17.0814 16.7559 16.7559C17.0814 16.4305 17.0814 15.9028 16.7559 15.5774L13.1785 12L16.7559 8.42259C17.0814 8.09715 17.0814 7.56952 16.7559 7.24408C16.4305 6.91864 15.9028 6.91864 15.5774 7.24408L12 10.8215L8.42259 7.24408C8.09715 6.91864 7.56951 6.91864 7.24408 7.24408C6.91864 7.56951 6.91864 8.09715 7.24408 8.42259L10.8215 12L7.24408 15.5774C6.91864 15.9028 6.91864 16.4305 7.24408 16.7559C7.56951 17.0814 8.09715 17.0814 8.42259 16.7559L12 13.1785L15.5774 16.7559Z" fill="#CC2944"/>
</svg>
