<svg width="20" height="20" viewBox="0 0 20 20" fill="none" xmlns="http://www.w3.org/2000/svg">
<path d="M9.99969 -0.000488281C4.49969 -0.000488281 -0.000305176 4.49951 -0.000305176 9.99951C-0.000305176 15.4995 4.49969 19.9995 9.99969 19.9995C15.4997 19.9995 19.9997 15.4995 19.9997 9.99951C19.9997 4.49951 15.4997 -0.000488281 9.99969 -0.000488281ZM9.99969 17.9995C5.58969 17.9995 1.99969 14.4095 1.99969 9.99951C1.99969 5.58951 5.58969 1.99951 9.99969 1.99951C14.4097 1.99951 17.9997 5.58951 17.9997 9.99951C17.9997 14.4095 14.4097 17.9995 9.99969 17.9995ZM14.5897 5.57951L7.99969 12.1695L5.40969 9.58951L3.99969 10.9995L7.99969 14.9995L15.9997 6.99951L14.5897 5.57951Z" fill="#0173B4"/>
</svg>
